<?xml version="1.0" encoding="UTF-8" standalone="no"?>
<svg
   width="18.75pt"
   height="9.75pt"
   viewBox="0 0 18.75 9.75"
   version="1.1"
   id="svg8"
   sodipodi:docname="scales-3.svg"
   inkscape:version="1.1.2 (0a00cf5339, 2022-02-04)"
   xmlns:inkscape="http://www.inkscape.org/namespaces/inkscape"
   xmlns:sodipodi="http://sodipodi.sourceforge.net/DTD/sodipodi-0.dtd"
   xmlns="http://www.w3.org/2000/svg"
   xmlns:svg="http://www.w3.org/2000/svg">
  <sodipodi:namedview
     id="namedview10"
     pagecolor="#ffffff"
     bordercolor="#666666"
     borderopacity="1.0"
     inkscape:pageshadow="2"
     inkscape:pageopacity="0.0"
     inkscape:pagecheckerboard="0"
     inkscape:document-units="pt"
     showgrid="false"
     inkscape:zoom="49.538462"
     inkscape:cx="12.495342"
     inkscape:cy="6.4899068"
     inkscape:window-width="2752"
     inkscape:window-height="1715"
     inkscape:window-x="0"
     inkscape:window-y="0"
     inkscape:window-maximized="1"
     inkscape:current-layer="svg8" />
  <defs
     id="defs2" />
  <path
     id="path4"
     style="stroke-width:1.33333"
     d="M 0 0 L 0 0.75195312 C 0.014405795 0.75179402 0.026450728 0.75 0.041015625 0.75 C 0.90512749 0.75080532 1.5022548 1.1236129 1.8359375 1.8613281 C 1.7322902 2.0192507 1.6269871 2.1752459 1.5273438 2.3398438 C 1.4973038 2.3891342 1.469086 2.4403486 1.4394531 2.4902344 C 1.3771192 2.593937 1.3180461 2.7004533 1.2578125 2.8066406 C 0.84671611 2.7740766 0.42994421 2.7529734 0 2.7519531 L 0 3.7519531 C 0.24318624 3.752873 0.48280968 3.7584174 0.71875 3.7734375 C 0.71875 3.7734375 0.72070312 3.7734375 0.72070312 3.7734375 C 0.97114757 3.7894375 1.2178264 3.8137031 1.4609375 3.8457031 L 1.4628906 3.8457031 L 1.4726562 3.8476562 C 2.1300316 3.9316793 2.7573159 4.0582814 3.359375 4.2226562 L 3.9023438 4.4140625 C 4.516284 4.6290618 5.0967128 4.8827876 5.6464844 5.171875 L 5.6464844 5.1738281 L 6.1035156 5.4453125 C 6.7252001 5.815826 7.2954531 6.2348206 7.8261719 6.6933594 L 8.0292969 6.8769531 C 8.5326271 7.3332472 8.990533 7.8252641 9.4042969 8.3535156 C 9.4088484 8.3593693 9.4134273 8.3652303 9.4179688 8.3710938 C 9.4190003 8.3723873 9.4188759 8.3736887 9.4199219 8.375 C 9.4244613 8.3808654 9.4290644 8.386703 9.4335938 8.3925781 C 9.6171035 8.6288761 9.7893726 8.8743981 9.9550781 9.125 C 9.9809512 9.1643529 10.007729 9.2024484 10.033203 9.2421875 C 10.039312 9.2516863 10.046664 9.2639448 10.052734 9.2734375 C 10.090008 9.3316739 10.12187 9.3941332 10.158203 9.453125 C 9.6571169 9.5402229 9.1670214 9.654857 8.6894531 9.7988281 C 6.6389172 6.7698589 3.7601323 5.25 0.046875 5.25 L 0.02734375 5.25 L 0.025390625 5.25 L 0.021484375 5.25 C 0.014177259 5.2500158 0.007301704 5.2519243 0 5.2519531 L 0 6.2519531 C 0.0072987988 6.25192 0.014179608 6.2500188 0.021484375 6.25 L 0.02734375 6.25 L 0.046875 6.25 C 3.3150384 6.25 5.8702437 7.5475113 7.7148438 10.140625 C 7.2396949 10.329483 6.776368 10.547674 6.3261719 10.796875 C 4.7617619 8.76573 2.6673749 7.75 0.041015625 7.75 L 0.005859375 7.75 L 0.001953125 7.75 C 0.0012903108 7.7500032 0.00066275541 7.7499966 0 7.75 L 0 8.75 C 0.0019842004 8.749988 0.0038745714 8.7500106 0.005859375 8.75 L 0.0078125 8.75 L 0.041015625 8.75 C 2.2946199 8.75 4.0952468 9.6140488 5.4550781 11.322266 C 5.4298506 11.33885 5.4059826 11.358218 5.3808594 11.375 C 5.3502725 11.395677 5.3195245 11.416521 5.2890625 11.4375 C 5.0434499 11.604757 4.8019484 11.780523 4.5664062 11.966797 C 4.4592207 12.046034 4.3557073 12.127773 4.2519531 12.208984 C 3.1945382 10.907271 1.7926298 10.25 0.041015625 10.25 C 0.027079525 10.25 0.013898652 10.251863 0 10.251953 L 0 11.251953 C 0.013884957 11.251843 0.027085027 11.25 0.041015625 11.25 C 1.4750887 11.25 2.623003 11.787653 3.4882812 12.853516 C 3.4346233 12.90227 3.3806871 12.950615 3.328125 13 L 4.8984375 13 C 4.9234281 12.97895 4.9475383 12.956356 4.9726562 12.935547 C 5.0706414 12.85556 5.1690413 12.771939 5.2695312 12.695312 C 5.2709875 12.694203 5.2719807 12.692515 5.2734375 12.691406 C 5.2734375 12.691406 5.2753906 12.691406 5.2753906 12.691406 C 5.2772292 12.689974 5.2794109 12.688931 5.28125 12.6875 C 5.6544978 12.416822 6.0435476 12.155563 6.4609375 11.910156 L 6.9257812 11.636719 C 7.4761663 11.349411 8.0566903 11.102768 8.6660156 10.894531 L 9.0683594 10.757812 C 9.6998554 10.57313 10.353723 10.432241 11.037109 10.345703 L 11.039062 10.345703 C 11.280267 10.314395 11.525014 10.289214 11.773438 10.273438 C 11.777347 10.273216 11.781245 10.273656 11.785156 10.273438 C 12.033732 10.257901 12.285219 10.25 12.541016 10.25 C 12.98313 10.25 13.437972 10.277283 13.904297 10.328125 L 13.978516 10.335938 C 14.00696 10.338604 14.051773 10.343562 14.111328 10.351562 L 14.248047 10.367188 C 14.253812 10.367792 14.264318 10.370603 14.269531 10.371094 L 14.271484 10.371094 L 14.296875 10.375 L 14.386719 10.390625 L 14.574219 10.421875 C 14.694213 10.441467 14.859477 10.474597 15.091797 10.525391 L 15.105469 10.527344 C 15.457219 10.604458 15.803759 10.697726 16.146484 10.802734 L 16.230469 10.84375 L 16.271484 10.84375 L 16.273438 10.84375 L 16.335938 10.865234 L 16.421875 10.894531 C 16.956588 11.077403 17.463738 11.297162 17.953125 11.541016 C 18.027831 11.579016 18.098401 11.615181 18.154297 11.644531 C 18.152959 11.643119 18.153659 11.640107 18.152344 11.638672 L 18.220703 11.677734 C 18.238558 11.687254 18.27754 11.706439 18.292969 11.714844 L 18.318359 11.728516 C 18.322204 11.7306 18.326237 11.732287 18.330078 11.734375 L 18.355469 11.75 C 18.353728 11.749558 18.351335 11.750457 18.349609 11.75 C 18.373471 11.763141 18.39113 11.77318 18.423828 11.791016 C 18.447987 11.804054 18.458028 11.810252 18.476562 11.820312 L 18.626953 11.910156 C 18.791612 12.006962 18.947686 12.110196 19.105469 12.210938 L 19.140625 12.234375 L 19.144531 12.234375 C 19.19337 12.265766 19.244793 12.296354 19.292969 12.328125 L 19.292969 12.330078 L 19.507812 12.480469 C 19.559368 12.516024 19.635884 12.569689 19.736328 12.642578 L 19.832031 12.712891 L 19.845703 12.724609 L 19.867188 12.740234 L 20.089844 12.921875 L 20.091797 12.921875 C 20.129107 12.952224 20.165089 12.981791 20.1875 13 L 21.759766 13 C 21.707672 12.951081 21.65278 12.903771 21.599609 12.855469 C 22.455474 11.799188 23.588107 11.262338 25 11.251953 L 25 10.251953 C 23.271183 10.26235 21.885757 10.917752 20.837891 12.208984 C 20.693612 12.096047 20.545455 11.986088 20.394531 11.876953 C 20.366106 11.85495 20.339086 11.83032 20.310547 11.808594 C 20.306059 11.805255 20.301367 11.802161 20.296875 11.798828 C 20.077694 11.632401 19.854794 11.476288 19.628906 11.326172 C 20.982012 9.6268334 22.768823 8.7618416 25 8.75 L 25 7.75 C 22.396786 7.7613709 20.316887 8.7773519 18.759766 10.796875 C 18.310052 10.548224 17.847463 10.331157 17.373047 10.142578 C 19.207447 7.5603825 21.750089 6.2622726 25 6.25 L 25 5.25 C 21.303756 5.2620803 18.43829 6.7821312 16.398438 9.7988281 C 15.894889 9.6469533 15.377179 9.5301141 14.847656 9.4414062 C 14.885398 9.3795854 14.920423 9.3147588 14.958984 9.2539062 C 15.003442 9.1847339 15.049951 9.1168998 15.095703 9.0488281 C 15.250166 8.8191899 15.410093 8.5931665 15.580078 8.375 C 15.595129 8.3555762 15.609836 8.3357233 15.625 8.3164062 C 16.0448 7.784461 16.510483 7.2873205 17.023438 6.8242188 L 17.070312 6.78125 C 17.646321 6.2728339 18.274188 5.8142009 18.960938 5.4101562 L 19.425781 5.1367188 C 19.975436 4.852964 20.55333 4.6038259 21.166016 4.3945312 L 21.765625 4.1914062 L 21.763672 4.1875 C 22.35546 4.0329071 22.970796 3.9113454 23.615234 3.8339844 C 23.615234 3.8339844 23.617188 3.8339844 23.617188 3.8339844 L 23.623047 3.8339844 C 23.86258 3.8059998 24.098804 3.7855528 24.332031 3.7714844 C 24.557281 3.7578972 24.780632 3.7506067 25 3.75 L 25 2.75 C 24.761546 2.7506073 24.520176 2.7567845 24.275391 2.7714844 C 24.265788 2.772061 24.255706 2.7728392 24.246094 2.7734375 C 24.105424 2.7801268 23.966669 2.7905357 23.828125 2.8007812 C 23.767999 2.6949094 23.7087 2.5877752 23.646484 2.484375 C 23.616651 2.4343033 23.586883 2.3834558 23.556641 2.3339844 C 23.458516 2.1721445 23.353947 2.0186605 23.251953 1.8632812 C 23.578304 1.1359546 24.160499 0.76397892 25 0.75195312 L 25 0 L 23.732422 0 C 23.271779 0.19789288 22.895664 0.51286804 22.607422 0.95117188 C 22.348574 0.61611401 22.079152 0.29920058 21.798828 0 L 20.1875 0 C 20.280707 0.076308644 20.372368 0.15351613 20.462891 0.23242188 L 20.566406 0.32617188 C 21.07683 0.78433423 21.538788 1.2793749 21.957031 1.8085938 C 21.975913 1.832643 21.994963 1.8566423 22.013672 1.8808594 C 22.186034 2.1025026 22.347518 2.33245 22.503906 2.5664062 C 22.547741 2.6319636 22.592089 2.6970964 22.634766 2.7636719 C 22.668189 2.8159073 22.697819 2.8709966 22.730469 2.9238281 C 22.189152 3.0047268 21.664203 3.1139229 21.158203 3.2539062 C 20.191397 1.8345272 19.041698 0.74775288 17.703125 0 L 14.878906 0 C 17.03442 0.48332167 18.798367 1.6740326 20.167969 3.5761719 C 19.680894 3.7574015 19.210834 3.9675164 18.759766 4.2089844 C 17.20567 2.237485 15.133145 1.25 12.541016 1.25 L 12.505859 1.25 L 12.501953 1.25 C 9.910164 1.266461 7.8459828 2.2656298 6.3066406 4.2421875 C 5.8564609 3.9972255 5.3887058 3.7820634 4.9023438 3.5976562 C 6.2732119 1.6840017 8.0420799 0.48542 10.205078 0 L 7.3808594 0 C 6.0369951 0.7506668 4.8828588 1.8440047 3.9140625 3.2714844 C 3.4112873 3.1292065 2.8914184 3.0170821 2.3535156 2.9335938 C 2.3885471 2.8763291 2.4212966 2.8161981 2.4570312 2.7597656 C 2.5137905 2.6715994 2.5745151 2.5828776 2.6347656 2.4941406 C 2.7649449 2.302569 2.8982319 2.1128226 3.0390625 1.9296875 C 3.0797506 1.8764886 3.1205957 1.823882 3.1621094 1.7714844 C 3.5728905 1.2557014 4.0239188 0.77321669 4.5214844 0.32617188 L 4.6132812 0.24414062 C 4.7085381 0.16081913 4.806071 0.080440236 4.9042969 0 L 3.2871094 0 C 3.0071499 0.29889586 2.7389692 0.6164994 2.4804688 0.95117188 C 2.1911879 0.51286804 1.8130852 0.19789288 1.3515625 0 L 0 0 z M 18.349609 11.75 C 18.330658 11.739563 18.304393 11.724273 18.291016 11.716797 L 18.220703 11.677734 C 18.204387 11.669035 18.172639 11.654162 18.154297 11.644531 C 18.203094 11.696028 18.27031 11.729005 18.349609 11.75 z M 12.505859 2.25 L 12.507812 2.25 L 12.541016 2.25 C 14.757604 2.25 16.536151 3.0834326 17.884766 4.7304688 C 17.470787 5.0033069 17.073516 5.3033894 16.693359 5.6328125 C 15.64301 4.3788409 14.259736 3.75 12.541016 3.75 C 10.803676 3.75 9.4106623 4.3924061 8.3574219 5.6757812 C 7.9801109 5.3447653 7.5867193 5.0423157 7.1757812 4.7675781 C 8.5130019 3.1095543 10.286515 2.2649961 12.505859 2.25 z M 12.541016 4.75 C 13.96131 4.75 15.100513 5.2760822 15.962891 6.3222656 C 15.620023 6.6736624 15.292286 7.0497811 14.980469 7.453125 C 14.454197 6.6533571 13.643549 6.249316 12.541016 6.25 C 11.402679 6.25 10.578972 6.6725602 10.0625 7.5097656 C 9.7525848 7.1041637 9.426863 6.7247968 9.0859375 6.3710938 C 9.9509681 5.2928686 11.100412 4.75 12.541016 4.75 z M 12.541016 7.25 C 13.407368 7.25 14.003709 7.6245684 14.335938 8.3632812 C 14.311888 8.3994654 14.287484 8.436124 14.263672 8.4726562 C 14.254738 8.486505 14.245232 8.4997727 14.236328 8.5136719 C 14.233261 8.5183385 14.229625 8.5226717 14.226562 8.5273438 C 14.161036 8.6298755 14.095143 8.7306731 14.03125 8.8359375 C 14.0013 8.8849328 13.970955 8.934791 13.941406 8.984375 C 13.8789 9.0882553 13.820162 9.1963595 13.759766 9.3027344 C 13.759766 9.3027344 13.757812 9.3027344 13.757812 9.3027344 C 13.358685 9.2691096 12.95397 9.25 12.541016 9.25 C 12.273242 9.25 12.009975 9.2593015 11.748047 9.2734375 C 11.737094 9.2740981 11.725785 9.2747024 11.714844 9.2753906 C 11.700328 9.2763038 11.686369 9.278335 11.671875 9.2792969 C 11.528772 9.287792 11.385491 9.2958607 11.244141 9.3085938 C 11.177908 9.1915431 11.111797 9.074988 11.042969 8.9609375 C 11.025175 8.931191 11.008175 8.9006277 10.990234 8.8710938 C 10.901672 8.7241439 10.810475 8.5830632 10.71875 8.4414062 C 11.034203 7.6512066 11.638684 7.25 12.541016 7.25 z M 12.541016 11.75 C 10.694 11.75 9.0202913 12.167032 7.5175781 13 L 10.332031 13 C 11.036725 12.839541 11.770002 12.75 12.541016 12.75 C 13.312836 12.75 14.046795 12.839794 14.751953 13 L 17.568359 13 C 16.065546 12.167754 14.390297 11.75 12.541016 11.75 z M 0.041015625 12.75 C 0.027088698 12.75 0.013858703 12.751787 0 12.751953 L 0 13 L 1.3535156 13 C 0.97333301 12.837106 0.53854649 12.75 0.041015625 12.75 z M 25 12.751953 C 24.521583 12.756514 24.100665 12.841802 23.732422 13 L 25 13 L 25 12.751953 z "
     transform="scale(0.75)" />
</svg>
